<svg xmlns="http://www.w3.org/2000/svg" viewBox="0 0 560 180" role="img" aria-labelledby="title desc">
  <title id="title">Calvier Essence</title>
  <desc id="desc">Gold Calvier Essence fragrance logo</desc>
  <defs>
    <linearGradient id="gold" x1="0" y1="0" x2="1" y2="1">
      <stop offset="0" stop-color="#fff2b0"/><stop offset=".42" stop-color="#d4af37"/><stop offset="1" stop-color="#8b651e"/>
    </linearGradient>
    <filter id="glow" x="-30%" y="-30%" width="160%" height="160%"><feGaussianBlur stdDeviation="3" result="b"/><feMerge><feMergeNode in="b"/><feMergeNode in="SourceGraphic"/></feMerge></filter>
  </defs>
  <g fill="none" stroke="url(#gold)" stroke-linecap="round" stroke-linejoin="round" filter="url(#glow)">
    <path d="M280 12 303 48 280 69 257 48Z" stroke-width="4"/>
    <path d="M280 31v64M257 48l-20 35 43 35 43-35-20-35M280 69l-23 46M280 69l23 46" stroke-width="4"/>
    <path d="m237 83-19 28 62 38 62-38-19-28M218 111l-15 22 77 35 77-35-15-22" stroke-width="3"/>
  </g>
  <text x="280" y="160" text-anchor="middle" fill="url(#gold)" font-family="Georgia, serif" font-size="54" letter-spacing="8">CALVIER</text>
  <text x="280" y="178" text-anchor="middle" fill="#d4af37" font-family="Arial, sans-serif" font-size="13" letter-spacing="8">ESSENCE</text>
</svg>
